<svg xmlns="http://www.w3.org/2000/svg" width="550" height="500" viewBox="0 0 550 500">
  <defs>
    <style>
      .cls-1 {
        fill-rule: evenodd;
      }

      .cls-2 {
        fill: none;
        stroke: #000;
        stroke-width: 15px;
      }
    </style>
  </defs>
  <path id="A" class="cls-1" d="M211.241,90.188l24.8,26.675-31.823,87.513a179.662,179.662,0,0,0-23.867-18.953l-3.744,5.148,2.106,1.638q7.951,6.318,19.655,16.613l2.808,2.34-4.212,10.3a119.117,119.117,0,0,1-12.869-10.53l-10.53-9.828q-0.7-.7-3.978-3.744A168.026,168.026,0,0,1,149.7,237.369q23.4,2.342,35.8,12.87l-0.936,3.276q-19.19,61.071-38.726,90.321t-53,46.564h117q-2.808-3.037-4.212-4.446-14.275-14.971-18.719-23.633T182.46,340.56q0-12.636,6.318-31.823L196.5,284.87q4.679-14.506,7.722-22l10.3,10.764q-19.425,47.268-19.422,71.134,0,14.038,4.8,24.452t20.24,29.132l3.978,4.914h-119.1l4.68,6.317H236.044q-3.51-4.442-5.148-6.551-19.189-23.868-24.218-34.046t-5.031-24.92q0-25.036,18.017-65.05l2.34,2.808q18.954,24.8,31.121,44.224l4.212,6.786a208,208,0,0,1,46.1-53.818l4.446,10.3-1.872,2.34Q278.63,319.971,264.825,342.9l5.382,1.4q13.8-23.4,39.545-49.373l25.973,68.326L303.434,390.4H421.6l-35.1-27.143-42.353-114.89q10.294-7.02,32.525-7.02,3.039,0,9.828.468a162.136,162.136,0,0,1-18.719-47.734q-1.876,2.342-8.892,7.955l-7.722,6.552q-0.471.472-3.276,2.574l-32.759-87.279,23.634-27.377-6.084-2.574-24.8,28.547,34.63,92.193-9.359,5.148L294.776,117.8l24.335-27.611H211.241Zm82.131,161.221a208.205,208.205,0,0,0-23.867,25.037l-2.34-3.51q-11.934-17.779-19.655-26.207l-9.594-10.764a24.6,24.6,0,0,0-2.34-2.808L261.315,165.3Zm-36.035-95.235-29.951,79.089a243.824,243.824,0,0,1,38.141,45.629q-1.875,2.106-2.574,3.042l-3.276,3.977a18.591,18.591,0,0,1-2.34,2.574q-2.106-2.808-2.34-3.042l-10.763-14.975a326.017,326.017,0,0,0-30.653-36.035l37.2-98.277Zm123.782,44.692q5.145,22.233,20.123,49.841l2.808,5.148a209.391,209.391,0,0,0-28.079-2.106,71.54,71.54,0,0,0-18.251,2.106l41.651,110.21,42.118,37.2H317.239l4.446,6.317H457.167l-52.181-46.1L365.91,259.832c2.493-.153,4.054-0.234,4.679-0.234q5.847,0,18.72,1.17l18.953,1.638q0.7,0,5.85.7-20.594-36.732-25.739-57.8Z"/>
  <rect class="cls-2" x="52" y="52" width="446" height="397"/>
  <rect class="cls-2" x="28" y="28" width="495" height="445"/>
</svg>
