<svg xmlns="http://www.w3.org/2000/svg" width="778.062" height="132.75" viewBox="0 0 778.062 132.75">
  <defs>
    <style>
      .cls-1 {
        fill-rule: evenodd;
      }
    </style>
  </defs>
  <path id="ANIME_BAY" data-name="ANIME BAY" class="cls-1" d="M50.12,50.47l8.2,8.814L47.8,88.2a59.347,59.347,0,0,0-7.886-6.262l-1.237,1.7,0.7,0.541Q42,86.265,45.867,89.667L46.8,90.44l-1.392,3.4a39.348,39.348,0,0,1-4.252-3.479l-3.479-3.247q-0.232-.232-1.314-1.237A55.512,55.512,0,0,1,29.787,99.1q7.73,0.774,11.829,4.252l-0.309,1.082q-6.34,20.179-12.795,29.843A46.019,46.019,0,0,1,11,149.66H49.656q-0.928-1-1.392-1.468a38.457,38.457,0,0,1-6.185-7.809,15.65,15.65,0,0,1-1.469-7.19A35.057,35.057,0,0,1,42.7,122.679l2.551-7.886Q46.795,110,47.8,107.526l3.4,3.556q-6.418,15.618-6.417,23.5a19.141,19.141,0,0,0,1.585,8.079q1.584,3.441,6.687,9.625l1.314,1.624H15.02L16.566,156H58.315q-1.16-1.467-1.7-2.165-6.34-7.886-8-11.248a18.453,18.453,0,0,1-1.662-8.234q0-8.273,5.953-21.493l0.773,0.928q6.262,8.2,10.282,14.612l1.392,2.242A68.724,68.724,0,0,1,80.58,112.86l1.469,3.4-0.619.773a98.482,98.482,0,0,0-13.607,16.931L69.6,134.43a85.614,85.614,0,0,1,13.066-16.312l8.581,22.574L80.58,149.66h39.042l-11.6-8.968L94.032,102.733q3.4-2.32,10.746-2.32,1,0,3.248.155A53.539,53.539,0,0,1,101.841,84.8,22.294,22.294,0,0,1,98.9,87.425L96.352,89.59q-0.156.156-1.082,0.85L84.446,61.6l7.808-9.045-2.01-.85-8.195,9.432L93.491,91.6,90.4,93.3,77.72,59.593l8.04-9.123H50.12Zm27.136,53.268a68.784,68.784,0,0,0-7.886,8.272L68.6,110.85a77.331,77.331,0,0,0-6.494-8.659l-3.17-3.556a8.137,8.137,0,0,0-.773-0.928l8.5-22.42ZM65.35,72.272L55.454,98.4a80.539,80.539,0,0,1,12.6,15.076q-0.62.7-.85,1L66.123,115.8a6.157,6.157,0,0,1-.773.851q-0.7-.928-0.773-1L61.02,110.7A107.632,107.632,0,0,0,50.893,98.79L63.185,66.319Zm40.9,14.766a67.031,67.031,0,0,0,6.649,16.468l0.928,1.7a69.171,69.171,0,0,0-9.277-.7,23.635,23.635,0,0,0-6.031.7l13.762,36.413,13.916,12.293H85.141L86.61,156h44.764l-17.241-15.23-12.911-34.249q1.236-.076,1.546-0.077,1.932,0,6.185.386l6.262,0.541q0.233,0,1.933.232-6.8-12.136-8.5-19.1ZM177.615,50.47q8.658,4.175,10.862,8.7t2.2,17.975v40.2L161.3,59.67l9.587-6.494-1.469-1.469L158.6,59.052l32.084,62.467V130.8L153.262,57.815,164.24,50.47H125.121L135.4,59.052V120.9q0,13.915-3.092,19.637t-12.525,9.122h36.027l4.02,4.253H121.1L122.337,156h41.9l-6.726-7.19q-10.283-3.015-13.066-9.587t-2.783-27.754V66.938l4.175,8.118v42.289l-0.077,7.268q0,19.249,10.669,22.806l-0.619-.541q-5.49-3.711-7.035-11.442L147.85,124.3l0.077-3.479V78.843l36.491,70.817h13.066V76.524q0-11.829,3.865-17.7,2.552-3.787,11.365-8.35h-35.1Zm26.943,11.4q-2.823,4.291-2.822,15.192v76.848H186.2l1,2.087h16.622V76.292q0-8.89,2.126-12.64t8.079-5.141l1.392-2.319Q207.379,57.583,204.558,61.874Zm16.283-1.74V140.77L210.1,149.66h36.027l-9.741-8.195V60.985L246.74,50.47H210.1Zm28.064-6.8-8.736,8.659v80.249l10.592,11.674H213.187L215.12,156h40.2l-12.988-14.535V62.685l7.885-7.808Zm65.028-2.861L323.365,60.6l-19.946,55.123-18.4-53.886,9.664-6.8-1.624-1.314-10.128,7.5,19.792,57.365-2.783,6.726L278.061,60.6l11.21-10.128H249.3l10.2,9.587v63.936q0,10.437-2.745,15.269t-11.326,9.548l-1.623.85h34.481l2.86,4.253h-37.96L244.585,156h40.434l-6.958-8.813q-4.022-4.1-5.1-7.5t-1.082-11.6v-40.9l21.183,62.39h5.412l28.76-79.4V82.013l-25.822,71.9h-6.726L295.3,156h7.422l24.508-67.415v52.03l-10.747,9.045h35.564l-9.51-9.045v-79.4L353.13,50.47h-39.2ZM269.866,81.085V132.5q0,9.9,7.576,15.153l0.7,1.16q-7.654-2.163-10.089-6.958t-2.435-17.55V68.793Zm85.97-25.9-9.123,6.262v80.327l10.746,12.138H320.041L321.123,156h41.052l-13.452-15.308V62.763l8.736-6.262Zm0.782-4.716,11.751,9.277V92.759q-12.68,0-16.235,12.37a21.106,21.106,0,0,1,14.38-5.8,18.588,18.588,0,0,1,1.855.155v3.633q-8.116,1.007-12.833,4.407l1.082,1.623a28.494,28.494,0,0,1,11.751-4.02V139.61l-11.751,8.968h86.666a61.332,61.332,0,0,1-9.857-11.906,50.255,50.255,0,0,1-4.987-13.607q-0.7,1.238-.927,1.7l-4.1,7.036a18.741,18.741,0,0,1-10.437,8.813q-6.649,2.244-22.42,2.242V105.129h16.854l-2.01-2.01H388.625v39.738h-4.948V99.486h21.106l9.973,12.91V79.075l-9.973,13.684H390.558V63.381l1.623-.077Q398.52,63,401,62.995q8.193,0,10.978.928t9.045,5.876c0.31,0.258.824,0.645,1.547,1.16q-3.636-6.03-8.273-8.118t-14.457-2.087q-5.334,0-11.21.541V92.759h-4.948V57.2q8.118-.386,13.916-0.387,12.6,0,17.472,2.706T424.188,71.5q0.385,0.852,1.16,2.628a77.175,77.175,0,0,1,12.524-22.188l1.237-1.469H356.618Zm85.12,3.788a91.674,91.674,0,0,0-13.375,21.956l1.314,1.624q3.169-8.581,12.6-21.261l0.541-.7Zm-23.58,26.363v34.171l1.933,1V81.627Zm32.7,67.183q-10.128-9.9-14.379-19.792l-2.474-.927q4.56,11.675,15.694,21.956l-2.629,4.871H362.416L363.653,156h84.424l4.02-6.958Zm34.191-82.182V94.692a22.075,22.075,0,0,0-3.634-.232q-1.548,0-4.561-.232l-1.237-.077-3.4,7.422q6.57-.618,10.9-0.619h1.933v4.1q-4.407,0-11.288.7l0.619,2.242a72.159,72.159,0,0,1,10.669-.928v33.476l-10.669,9.122h55.354q13.917,0,22.266-6.919t8.35-18.439a25.763,25.763,0,0,0-4.214-14.457,27.4,27.4,0,0,0-11.79-9.9q17.472-6.648,17.473-23.5,0-12.215-10.128-20.024l-0.851-.7v0.464q9.047,8.505,9.046,19.482a22.74,22.74,0,0,1-18.4,23.116q-2.63-.772-4.484-1.237V96.7q18.245-5.334,18.245-21.106,0-11.829-10.514-19.289T517.6,48.847a73.329,73.329,0,0,0-41.285,12.138Zm32.161-10.669q9.741,0,15.733,5.45t5.992,14.341q0,10.129-7.229,15.037t-21.995,4.909h-3.247V65a18.25,18.25,0,0,1,10.823-3.4q10.746,0,16.545,8.736L536,71.576q-2.94-6.338-7.152-8.968t-11.48-2.629a30.685,30.685,0,0,0-12.989,3.092v31.62h-1.314l-1.391-.077c-0.207,0-.594.027-1.16,0.077V59.825a32.062,32.062,0,0,1,16.7-4.871h0Zm-9.355,45.768q19.714,0,26.9,4.523t7.19,16.815q0,19.64-21.8,21.184l-11.21.386h-2.474v-36.1l6.339-.155q11.055,0,16.777,2.049a19.642,19.642,0,0,1,9.509,7.383h0.928q-3.4-6.726-9.162-9.122t-18.593-2.4q-2.4,0-7.886.386v37.96h-3.865v-42.6q5.411-.309,7.344-0.31h0Zm49.634,6.417a27.167,27.167,0,0,1,7.113,18.246q0,18.015-15.617,25.281-7.036,3.246-22.961,3.247H477.242L478.556,156h52.572q17.4,0,26.363-8.35,9.2-8.582,9.2-21.724,0-13.065-8.272-19.482ZM603.114,50.47l8.195,8.814L600.795,88.2a59.369,59.369,0,0,0-7.886-6.262l-1.237,1.7,0.7,0.541q2.626,2.087,6.494,5.489l0.928,0.773-1.392,3.4a39.356,39.356,0,0,1-4.252-3.479l-3.479-3.247q-0.233-.232-1.314-1.237a55.541,55.541,0,0,1-6.572,13.22q7.731,0.774,11.829,4.252l-0.309,1.082q-6.341,20.179-12.8,29.843A46.017,46.017,0,0,1,564,149.66H602.65q-0.927-1-1.391-1.468a38.419,38.419,0,0,1-6.185-7.809,15.646,15.646,0,0,1-1.469-7.19,35.073,35.073,0,0,1,2.087-10.514l2.551-7.886q1.546-4.793,2.552-7.267l3.4,3.556q-6.417,15.618-6.416,23.5a19.126,19.126,0,0,0,1.585,8.079q1.582,3.441,6.687,9.625l1.314,1.624H568.015L569.561,156h41.748q-1.159-1.467-1.7-2.165-6.341-7.886-8-11.248a18.451,18.451,0,0,1-1.663-8.234q0-8.273,5.953-21.493l0.773,0.928q6.263,8.2,10.283,14.612l1.391,2.242a68.746,68.746,0,0,1,15.231-17.782l1.469,3.4-0.619.773a98.523,98.523,0,0,0-13.607,16.931l1.778,0.464a85.649,85.649,0,0,1,13.066-16.312l8.582,22.574-10.669,8.968h39.042l-11.6-8.968-13.993-37.959q3.4-2.32,10.746-2.32,1,0,3.247.155A53.594,53.594,0,0,1,654.835,84.8a22.232,22.232,0,0,1-2.938,2.629l-2.551,2.165q-0.156.156-1.082,0.85L637.44,61.6l7.809-9.045-2.01-.85-8.2,9.432L646.486,91.6l-3.093,1.7L630.714,59.593l8.041-9.123H603.114Zm27.136,53.268a68.8,68.8,0,0,0-7.885,8.272l-0.774-1.16a77.246,77.246,0,0,0-6.494-8.659l-3.169-3.556a8.2,8.2,0,0,0-.774-0.928l8.5-22.42ZM618.344,72.272l-9.9,26.131a80.535,80.535,0,0,1,12.6,15.076q-0.62.7-.85,1l-1.083,1.314a6.064,6.064,0,0,1-.773.851c-0.463-.619-0.722-0.954-0.773-1l-3.556-4.948A107.55,107.55,0,0,0,603.887,98.79L616.18,66.319Zm40.9,14.766a67.031,67.031,0,0,0,6.649,16.468l0.928,1.7a69.185,69.185,0,0,0-9.278-.7,23.631,23.631,0,0,0-6.03.7l13.761,36.413,13.916,12.293H638.136L639.605,156h44.763l-17.24-15.23-12.911-34.249q1.236-.076,1.546-0.077,1.932,0,6.185.386l6.262,0.541q0.232,0,1.933.232-6.8-12.136-8.5-19.1ZM784.65,23.721Q770.193,31.684,747.7,37.1q6.57,6.34,6.572,11.287,0,5.876-7.5,17.782L729.45,93.455,708.035,60.443l7.035-6.494-1.624-1.237-8.117,7.731L728.29,95.311l-2.474,3.943-25.744-38.81,9.586-9.973H670.616l0.85,0.7a83.49,83.49,0,0,1,10.4,9.355,105.033,105.033,0,0,1,9.007,12.524l4.02,6.417,18.554,28.528v31.388L702.314,149.66h37.65l-11.21-10.282V107.99l28.76-46q1.467-2.4,4.948-8.04a166.781,166.781,0,0,1,22.807-29.224l0.773-.85-0.464-.619Zm-18.477,32.7-4.484,7.113-28.528,45v30.847l11.751,14.535H699.685L700.613,156h48.4l-13.762-16.622V109.072L763.235,65q9.2-14.612,13.877-20.8a103.091,103.091,0,0,1,11.172-12.37l0.773-.773V27.9q-10.9,9.433-22.884,28.528h0Z" transform="translate(-11 -23.25)"/>
</svg>
